<svg id="レイヤー_1" data-name="レイヤー 1" xmlns="http://www.w3.org/2000/svg" viewBox="0 0 680 100"><defs><style>.cls-1{fill:#1e47ad;}.cls-2{fill:#0f1e2d;}</style></defs><path class="cls-1" d="M26.18,9.66v9.47Q21.74,16,18.2,16A8,8,0,0,0,12,18.67a9.55,9.55,0,0,0-2.43,6.85A11.73,11.73,0,0,0,11.25,32a28.06,28.06,0,0,0,2.91,3.73c1.36,1.53,3.11,3.36,5.25,5.51q5.93,6,8.07,10.41a22.76,22.76,0,0,1,2.15,10.4q0,8.35-4.71,13.77A15.49,15.49,0,0,1,12.83,81.1,16.68,16.68,0,0,1,2.24,77.69V68.08q5.18,3.78,9.43,3.78a7.71,7.71,0,0,0,6.2-2.63,10.69,10.69,0,0,0,2.24-7.17,14.31,14.31,0,0,0-1.72-7,29.24,29.24,0,0,0-2.48-3.43q-1.59-1.94-4-4.32-3.69-3.65-6.12-6.44a31.11,31.11,0,0,1-3.59-4.9A21.5,21.5,0,0,1,0,25.57q0-8.44,4.39-13.39t11.9-5A21,21,0,0,1,26.18,9.66Z"/><path class="cls-2" d="M65.8,56.46Q65.8,81,50.63,81T35.46,56.09q0-25,15.12-25a14.44,14.44,0,0,1,6.79,1.5,11.86,11.86,0,0,1,4.74,4.62,24.38,24.38,0,0,1,2.78,7.88A61.93,61.93,0,0,1,65.8,56.46Zm-9.24-.23q0-9.52-1.26-13.25c-.84-2.52-2.34-3.78-4.48-3.78s-3.63,1.24-4.53,3.73S45,49.76,45,56s.42,10.51,1.26,13,2.41,3.74,4.53,3.74,3.59-1.23,4.43-3.69Q56.55,65.52,56.56,56.23Z"/><path class="cls-2" d="M93.84,32.85V42a5.63,5.63,0,0,0-4.48-2.29q-7.36,0-7.37,16,0,17,7.32,16.94a7.83,7.83,0,0,0,4.53-1.82v8.35A15.21,15.21,0,0,1,86.65,81Q72.28,81,72.28,56.51q0-13,3.55-19.2t11-6.19A15.31,15.31,0,0,1,93.84,32.85Z"/><path class="cls-2" d="M121.14,32.85V42a5.64,5.64,0,0,0-4.48-2.29q-7.38,0-7.37,16,0,17,7.32,16.94a7.83,7.83,0,0,0,4.53-1.82v8.35A15.24,15.24,0,0,1,114,81Q99.58,81,99.58,56.51q0-13,3.55-19.2t11-6.19A15.34,15.34,0,0,1,121.14,32.85Z"/><path class="cls-2" d="M147.36,63.93h8.31q-1,17-14,17A14.16,14.16,0,0,1,135,79.51a11.61,11.61,0,0,1-4.6-4.48,23.23,23.23,0,0,1-2.68-7.69,62.61,62.61,0,0,1-.86-11.11q0-12.78,3.57-18.95t11-6.16Q156,31.12,156,56.7v1.12H135.6q0,15.48,6.16,15.49Q147.37,73.31,147.36,63.93Zm-.46-12.55c-.38-5.07-1-8.4-1.73-10a4.08,4.08,0,0,0-3.92-2.66,4,4,0,0,0-3.92,2.66c-.78,1.59-1.35,4.92-1.73,10Z"/><path class="cls-2" d="M163.93,31.92h8.91v6a17.1,17.1,0,0,1,4.53-5.37,11.52,11.52,0,0,1,5.92-1.77v9.33a11.42,11.42,0,0,0-1.58-.14c-3.21,0-5.49.83-6.86,2.47s-2,4.45-2,8.5V80.21h-8.91Z"/><path class="cls-1" d="M206.75,8.17h12.79q9.24,0,13.44,4.66t4.2,14.93q0,14.39-8.45,18.58-4.24,1.9-12.27,1.91v32h-9.71Zm9.71,31.77c4,0,6.78-.8,8.3-2.42s2.34-4.58,2.34-8.78-.75-7.43-2.24-9.42-3.84-3-7.05-3h-1.35Z"/><path class="cls-2" d="M244.13.93H253V80.21h-8.91Z"/><path class="cls-2" d="M290.75,31.92V80.21h-8.92V74A15.57,15.57,0,0,1,278,79.47,8,8,0,0,1,273,81q-6,0-8.82-6.16t-2.8-19.32q0-12.55,2.8-18.45T273,31.12q5.5,0,8.86,6.26V31.92ZM270.59,55.86q0,9.51,1.26,13.3t4.57,3.78q3,0,4.34-3.92,1.35-4.2,1.35-12.93t-1.35-13c-.9-2.62-2.35-3.92-4.34-3.92s-3.62,1.24-4.53,3.73Q270.58,46.38,270.59,55.86Z"/><path class="cls-2" d="M302,18.39h8.91V31.92h4.85V39h-4.85v41.2H302V39h-4.9V31.92H302Z"/><path class="cls-2" d="M318.7,31.92h4.48V15.07q0-8.25,2.42-11.66T334.05,0a18.12,18.12,0,0,1,6.07,1.26v9.43a8.13,8.13,0,0,0-3.78-1.17,3.71,3.71,0,0,0-3.25,1.35,8.31,8.31,0,0,0-.95,4.58l-.05,3.64V31.92h7.56V39h-7.56v41.2h-8.91V39H318.7Z"/><path class="cls-2" d="M374,56.46Q374,81,358.88,81T343.71,56.09q0-25,15.12-25a14.47,14.47,0,0,1,6.79,1.5,11.92,11.92,0,0,1,4.74,4.62,24.38,24.38,0,0,1,2.77,7.88A61.06,61.06,0,0,1,374,56.46Zm-9.24-.23q0-9.52-1.26-13.25t-4.48-3.78q-3.17,0-4.52,3.73t-1.26,13q0,9.28,1.26,13t4.52,3.74q3.18,0,4.44-3.69Q364.81,65.52,364.8,56.23Z"/><path class="cls-2" d="M382.35,31.92h8.91v6a17,17,0,0,1,4.53-5.37,11.52,11.52,0,0,1,5.92-1.77v9.33a11.42,11.42,0,0,0-1.58-.14c-3.21,0-5.49.83-6.86,2.47s-2,4.45-2,8.5V80.21h-8.91Z"/><path class="cls-2" d="M407.87,31.92h8.92v6q3.68-6.76,9.79-6.77,6.68,0,9.06,6.77,3.54-6.76,10.08-6.77,5.08,0,7.77,2.69c1.78,1.79,2.68,4.42,2.68,7.91V80.21h-9V48.44q0-5.46-1-7.33c-.65-1.27-1.93-1.91-3.82-1.91q-3.23,0-4.39,2t-1.12,7.28V80.21h-9.24V48.44a29.61,29.61,0,0,0-.26-4.34,8.14,8.14,0,0,0-.86-2.85,3.68,3.68,0,0,0-1.59-1.56,5.32,5.32,0,0,0-2.42-.49,4.77,4.77,0,0,0-4.39,2.1q-1.3,2.1-1.3,7.14V80.21h-8.92Z"/><path class="cls-1" d="M483.92,8.17h12.79q9.24,0,13.43,4.66t4.2,14.93q0,14.39-8.44,18.58-4.25,1.9-12.27,1.91v32h-9.71Zm9.71,31.77c4,0,6.78-.8,8.3-2.42s2.34-4.58,2.34-8.78-.75-7.43-2.24-9.42-3.85-3-7-3h-1.35Z"/><path class="cls-2" d="M521.3,31.92h8.91v6a17,17,0,0,1,4.53-5.37,11.49,11.49,0,0,1,5.92-1.77v9.33a11.42,11.42,0,0,0-1.58-.14c-3.21,0-5.49.83-6.86,2.47s-2,4.45-2,8.5V80.21H521.3Z"/><path class="cls-2" d="M575.33,56.46q0,24.51-15.16,24.5T545,56.09q0-25,15.12-25a14.47,14.47,0,0,1,6.79,1.5,11.92,11.92,0,0,1,4.74,4.62,24.15,24.15,0,0,1,2.77,7.88A61.06,61.06,0,0,1,575.33,56.46Zm-9.24-.23q0-9.52-1.26-13.25t-4.48-3.78q-3.17,0-4.52,3.73t-1.26,13q0,9.28,1.26,13t4.52,3.74q3.18,0,4.44-3.69Q566.1,65.52,566.09,56.23Z"/><path class="cls-2" d="M587.84,11.39a5.74,5.74,0,0,1,4.2,1.77,5.8,5.8,0,0,1,1.77,4.25,6,6,0,1,1-12.08-.05,5.74,5.74,0,0,1,1.77-4.2A6.22,6.22,0,0,1,587.84,11.39Zm-4.2,20.53h9V100h-9Z"/><path class="cls-2" d="M621.3,63.93h8.3q-1,17-14,17A14.19,14.19,0,0,1,609,79.51,11.52,11.52,0,0,1,604.36,75a23,23,0,0,1-2.68-7.69,61.6,61.6,0,0,1-.87-11.11q0-12.78,3.57-18.95t11-6.16q14.51,0,14.51,25.58v1.12H609.54q0,15.48,6.16,15.49Q621.29,73.31,621.3,63.93Zm-.47-12.55q-.55-7.6-1.73-10a4.07,4.07,0,0,0-3.92-2.66,4,4,0,0,0-3.92,2.66c-.77,1.59-1.35,4.92-1.72,10Z"/><path class="cls-2" d="M657.6,32.85V42a5.63,5.63,0,0,0-4.48-2.29q-7.36,0-7.37,16,0,17,7.33,16.94a7.83,7.83,0,0,0,4.52-1.82v8.35A15.2,15.2,0,0,1,650.42,81Q636,81,636,56.51q0-13,3.55-19.2t11-6.19A15.31,15.31,0,0,1,657.6,32.85Z"/><path class="cls-2" d="M666.23,18.39h8.92V31.92H680V39h-4.85v41.2h-8.92V39h-4.9V31.92h4.9Z"/></svg>