<svg id="レイヤー_1" data-name="レイヤー 1" xmlns="http://www.w3.org/2000/svg" viewBox="0 0 250 300"><defs><style>.cls-1{fill:#3d73e0;}.cls-2{fill:#d7e6f2;}</style></defs><path class="cls-1" d="M26.24,2.48V12q-4.44-3.18-8-3.18A8,8,0,0,0,12,11.51a9.58,9.58,0,0,0-2.43,6.87,11.85,11.85,0,0,0,1.73,6.5,27.66,27.66,0,0,0,2.93,3.74c1.35,1.53,3.11,3.37,5.26,5.52q5.94,6,8.09,10.43A23,23,0,0,1,29.7,55q0,8.39-4.72,13.8a15.51,15.51,0,0,1-12.12,5.29A16.76,16.76,0,0,1,2.25,70.67V61q5.19,3.78,9.44,3.79a7.69,7.69,0,0,0,6.22-2.65A10.7,10.7,0,0,0,20.16,55a14.42,14.42,0,0,0-1.73-7.06A28.92,28.92,0,0,0,16,44.5q-1.59-1.94-4-4.32-3.69-3.65-6.12-6.46a29,29,0,0,1-3.6-4.91A21.44,21.44,0,0,1,0,18.43Q0,10,4.4,5T16.32,0A21.11,21.11,0,0,1,26.24,2.48Z"/><path class="cls-2" d="M66,49.39Q66,73.95,50.75,74T35.55,49q0-25,15.15-25a14.56,14.56,0,0,1,6.81,1.5,12,12,0,0,1,4.74,4.63A24.33,24.33,0,0,1,65,38,61.21,61.21,0,0,1,66,49.39Zm-9.26-.23q0-9.54-1.26-13.29c-.85-2.52-2.34-3.78-4.49-3.78s-3.64,1.24-4.54,3.74-1.26,6.84-1.26,13.05.42,10.54,1.26,13,2.41,3.74,4.54,3.74,3.6-1.23,4.44-3.69S56.69,55.36,56.69,49.16Z"/><path class="cls-2" d="M94.06,25.72v9.13a5.63,5.63,0,0,0-4.49-2.3q-7.39,0-7.39,16,0,17,7.34,17a7.88,7.88,0,0,0,4.54-1.83v8.38A15.4,15.4,0,0,1,86.86,74Q72.44,74,72.45,49.44q0-13,3.56-19.25T87,24A15.42,15.42,0,0,1,94.06,25.72Z"/><path class="cls-2" d="M121.42,25.72v9.13a5.63,5.63,0,0,0-4.49-2.3q-7.4,0-7.39,16,0,17,7.34,17a7.86,7.86,0,0,0,4.54-1.83v8.38a15.4,15.4,0,0,1-7.2,1.87Q99.81,74,99.81,49.44q0-13,3.56-19.25t11-6.2A15.35,15.35,0,0,1,121.42,25.72Z"/><path class="cls-2" d="M147.71,56.88H156Q155.06,74,142,74a14.3,14.3,0,0,1-6.66-1.45A11.73,11.73,0,0,1,130.73,68,23.19,23.19,0,0,1,128,60.29a61.76,61.76,0,0,1-.87-11.13q0-12.82,3.58-19T141.81,24q14.55,0,14.55,25.64v1.12H135.92q0,15.53,6.18,15.53Q147.71,66.28,147.71,56.88Zm-.47-12.59q-.56-7.62-1.73-10a4.08,4.08,0,0,0-3.93-2.66,4,4,0,0,0-3.93,2.66c-.78,1.59-1.35,4.93-1.73,10Z"/><path class="cls-2" d="M164.31,24.79h8.94v6a17.16,17.16,0,0,1,4.53-5.38,11.69,11.69,0,0,1,5.94-1.77V33a11.42,11.42,0,0,0-1.59-.14q-4.81,0-6.87,2.48t-2,8.51V73.2h-8.94Z"/><path class="cls-1" d="M0,108.63H12.82q9.25,0,13.47,4.68t4.21,15q0,14.41-8.47,18.62-4.26,1.92-12.3,1.92v32H0Zm9.73,31.85c4,0,6.8-.81,8.32-2.43s2.34-4.58,2.34-8.79-.75-7.46-2.24-9.45-3.85-3-7.06-3H9.73Z"/><path class="cls-2" d="M37.46,101.38H46.4v79.47H37.46Z"/><path class="cls-2" d="M84.19,132.44v48.41H75.26v-6.22a15.53,15.53,0,0,1-3.84,5.47,8,8,0,0,1-5,1.49q-6,0-8.84-6.17t-2.81-19.36q0-12.59,2.81-18.5t8.84-5.92q5.52,0,8.89,6.27v-5.47Zm-20.2,24q0,9.54,1.26,13.33t4.58,3.79q3,0,4.35-3.93,1.36-4.22,1.36-13t-1.36-13q-1.35-3.93-4.35-3.93-3.18,0-4.54,3.75Q64,146.93,64,156.43Z"/><path class="cls-2" d="M95.42,118.87h8.93v13.57h4.86v7.11h-4.86v41.3H95.42v-41.3H90.51v-7.11h4.91Z"/><path class="cls-2" d="M112.21,132.44h4.49V115.55q0-8.28,2.43-11.69t8.47-3.42a18.22,18.22,0,0,1,6.08,1.27v9.45a8.2,8.2,0,0,0-3.79-1.17,3.71,3.71,0,0,0-3.25,1.35,8.23,8.23,0,0,0-1,4.59l-.05,3.64v12.87h7.58v7.11h-7.58v41.3H116.7v-41.3h-4.49Z"/><path class="cls-2" d="M167.68,157q0,24.56-15.2,24.55t-15.2-24.92q0-25,15.15-25a14.56,14.56,0,0,1,6.81,1.5,12,12,0,0,1,4.75,4.63,24.5,24.5,0,0,1,2.78,7.9A61.25,61.25,0,0,1,167.68,157Zm-9.26-.23c0-6.37-.42-10.79-1.26-13.29s-2.34-3.79-4.49-3.79-3.64,1.25-4.54,3.75-1.26,6.84-1.26,13,.42,10.54,1.26,13,2.42,3.74,4.54,3.74,3.6-1.23,4.44-3.7Q158.41,166.12,158.42,156.81Z"/><path class="cls-2" d="M176,132.44h8.93v6a17.05,17.05,0,0,1,4.54-5.38,11.63,11.63,0,0,1,5.94-1.78v9.36a11.68,11.68,0,0,0-1.59-.14c-3.22,0-5.51.82-6.88,2.48s-2,4.46-2,8.51v29.33H176Z"/><path class="cls-2" d="M201.59,132.44h8.93v6q3.71-6.78,9.83-6.78,6.68,0,9.07,6.78,3.56-6.78,10.1-6.78,5.1,0,7.79,2.69c1.79,1.79,2.69,4.44,2.69,7.93v38.59h-9V149q0-5.46-1-7.34c-.65-1.28-1.93-1.92-3.83-1.92-2.16,0-3.62.66-4.4,2s-1.12,3.71-1.12,7.29v31.86h-9.26V149a31.33,31.33,0,0,0-.26-4.35,8.13,8.13,0,0,0-.87-2.85,3.7,3.7,0,0,0-1.59-1.57,5.47,5.47,0,0,0-2.43-.49,4.77,4.77,0,0,0-4.4,2.11c-.87,1.4-1.31,3.79-1.31,7.15v31.86h-8.93Z"/><path class="cls-1" d="M0,208H12.82q9.25,0,13.47,4.68t4.21,15q0,14.4-8.47,18.61-4.26,1.92-12.3,1.92v32H0ZM9.73,239.8c4,0,6.8-.81,8.32-2.43s2.34-4.58,2.34-8.79-.75-7.45-2.24-9.45-3.85-3-7.06-3H9.73Z"/><path class="cls-2" d="M37.46,231.76H46.4v6a17.17,17.17,0,0,1,4.54-5.38,11.54,11.54,0,0,1,5.94-1.77V240a11.68,11.68,0,0,0-1.59-.14q-4.83,0-6.88,2.48t-2,8.51v29.33H37.46Z"/><path class="cls-2" d="M91.63,256.36q0,24.56-15.2,24.56T61.23,256q0-25,15.15-25a14.56,14.56,0,0,1,6.81,1.5,12,12,0,0,1,4.74,4.63A24.24,24.24,0,0,1,90.72,245,62,62,0,0,1,91.63,256.36Zm-9.26-.23q0-9.54-1.27-13.29c-.84-2.52-2.33-3.78-4.49-3.78S73,240.3,72.08,242.8s-1.27,6.84-1.27,13,.42,10.54,1.27,13,2.41,3.74,4.53,3.74,3.61-1.23,4.45-3.69Q82.37,265.43,82.37,256.13Z"/><path class="cls-2" d="M104.16,211.18a6.08,6.08,0,0,1,6,6,6.06,6.06,0,1,1-12.11,0A5.74,5.74,0,0,1,99.81,213,6.21,6.21,0,0,1,104.16,211.18ZM100,231.76h9V300h-9Z"/><path class="cls-2" d="M137.7,263.84H146q-1,17.09-14,17.08a14.3,14.3,0,0,1-6.66-1.45,11.73,11.73,0,0,1-4.61-4.49,23.19,23.19,0,0,1-2.69-7.72,61.84,61.84,0,0,1-.86-11.13q0-12.82,3.57-19T131.81,231q14.53,0,14.54,25.63v1.13H125.91q0,15.52,6.18,15.53Q137.7,273.25,137.7,263.84Zm-.47-12.58q-.55-7.62-1.73-10a4.08,4.08,0,0,0-3.93-2.66,4,4,0,0,0-3.93,2.66c-.78,1.59-1.35,4.93-1.73,10Z"/><path class="cls-2" d="M174.09,232.69v9.12a5.66,5.66,0,0,0-4.49-2.29q-7.4,0-7.39,16,0,17,7.34,17a7.91,7.91,0,0,0,4.54-1.83v8.38a15.4,15.4,0,0,1-7.21,1.87q-14.4,0-14.4-24.51,0-13.05,3.55-19.25t11-6.2A15.42,15.42,0,0,1,174.09,232.69Z"/><path class="cls-2" d="M182.74,218.19h8.93v13.57h4.87v7.11h-4.87v41.3h-8.93v-41.3h-4.91v-7.11h4.91Z"/></svg>